<mxfile host="app.diagrams.net" modified="2022-12-29T06:45:15.452Z" agent="5.0 (Windows NT 10.0; Win64; x64) AppleWebKit/537.36 (KHTML, like Gecko) Chrome/108.0.0.0 Safari/537.36" etag="XLmqn-25puAFIPaG_J3N" version="20.6.0" type="github">
  <diagram id="C5RBs43oDa-KdzZeNtuy" name="Page-1">
    <mxGraphModel dx="1600" dy="981" grid="1" gridSize="10" guides="1" tooltips="1" connect="1" arrows="1" fold="1" page="1" pageScale="1" pageWidth="827" pageHeight="1169" math="0" shadow="0">
      <root>
        <mxCell id="WIyWlLk6GJQsqaUBKTNV-0" />
        <mxCell id="WIyWlLk6GJQsqaUBKTNV-1" parent="WIyWlLk6GJQsqaUBKTNV-0" />
        <mxCell id="XWecdgJLz6n113rmZtf5-0" value="" style="rounded=0;whiteSpace=wrap;html=1;" vertex="1" parent="WIyWlLk6GJQsqaUBKTNV-1">
          <mxGeometry x="30" y="40" width="1870" height="480" as="geometry" />
        </mxCell>
        <mxCell id="XWecdgJLz6n113rmZtf5-1" value="Thêm bảng mới vào cơ sở dữ liệu" style="rounded=0;whiteSpace=wrap;html=1;" vertex="1" parent="WIyWlLk6GJQsqaUBKTNV-1">
          <mxGeometry x="40" y="450" width="120" height="60" as="geometry" />
        </mxCell>
        <mxCell id="XWecdgJLz6n113rmZtf5-3" value="" style="rounded=0;whiteSpace=wrap;html=1;" vertex="1" parent="WIyWlLk6GJQsqaUBKTNV-1">
          <mxGeometry x="50" y="190" width="220" height="160" as="geometry" />
        </mxCell>
        <mxCell id="XWecdgJLz6n113rmZtf5-4" value="Add new" style="rounded=1;whiteSpace=wrap;html=1;fillColor=#e1d5e7;strokeColor=#9673a6;" vertex="1" parent="WIyWlLk6GJQsqaUBKTNV-1">
          <mxGeometry x="190" y="200" width="60" height="30" as="geometry" />
        </mxCell>
        <mxCell id="XWecdgJLz6n113rmZtf5-8" value="" style="rounded=0;whiteSpace=wrap;html=1;" vertex="1" parent="WIyWlLk6GJQsqaUBKTNV-1">
          <mxGeometry x="50" y="250" width="220" height="20" as="geometry" />
        </mxCell>
        <mxCell id="XWecdgJLz6n113rmZtf5-9" value="" style="rounded=0;whiteSpace=wrap;html=1;" vertex="1" parent="WIyWlLk6GJQsqaUBKTNV-1">
          <mxGeometry x="50" y="290" width="220" height="20" as="geometry" />
        </mxCell>
        <mxCell id="XWecdgJLz6n113rmZtf5-10" value="" style="endArrow=classic;html=1;rounded=0;exitX=1;exitY=0.5;exitDx=0;exitDy=0;" edge="1" parent="WIyWlLk6GJQsqaUBKTNV-1" source="XWecdgJLz6n113rmZtf5-3" target="XWecdgJLz6n113rmZtf5-11">
          <mxGeometry width="50" height="50" relative="1" as="geometry">
            <mxPoint x="390" y="350" as="sourcePoint" />
            <mxPoint x="440" y="300" as="targetPoint" />
          </mxGeometry>
        </mxCell>
        <mxCell id="XWecdgJLz6n113rmZtf5-11" value="Khởi tạo dữ liệu&lt;br&gt;{ name: &quot;New relation&quot;, ... }" style="rounded=0;whiteSpace=wrap;html=1;" vertex="1" parent="WIyWlLk6GJQsqaUBKTNV-1">
          <mxGeometry x="320" y="230" width="170" height="80" as="geometry" />
        </mxCell>
        <mxCell id="XWecdgJLz6n113rmZtf5-26" value="" style="edgeStyle=orthogonalEdgeStyle;rounded=0;orthogonalLoop=1;jettySize=auto;html=1;" edge="1" parent="WIyWlLk6GJQsqaUBKTNV-1" source="XWecdgJLz6n113rmZtf5-12" target="XWecdgJLz6n113rmZtf5-25">
          <mxGeometry relative="1" as="geometry" />
        </mxCell>
        <mxCell id="XWecdgJLz6n113rmZtf5-38" style="edgeStyle=orthogonalEdgeStyle;rounded=0;orthogonalLoop=1;jettySize=auto;html=1;entryX=0;entryY=0.5;entryDx=0;entryDy=0;" edge="1" parent="WIyWlLk6GJQsqaUBKTNV-1" source="XWecdgJLz6n113rmZtf5-12" target="XWecdgJLz6n113rmZtf5-34">
          <mxGeometry relative="1" as="geometry">
            <Array as="points">
              <mxPoint x="880" y="390" />
            </Array>
          </mxGeometry>
        </mxCell>
        <mxCell id="XWecdgJLz6n113rmZtf5-12" value="Xác nhận quyền truy cập" style="rhombus;whiteSpace=wrap;html=1;" vertex="1" parent="WIyWlLk6GJQsqaUBKTNV-1">
          <mxGeometry x="780" y="230" width="200" height="80" as="geometry" />
        </mxCell>
        <mxCell id="XWecdgJLz6n113rmZtf5-16" value="Thêm mới" style="rounded=0;whiteSpace=wrap;html=1;" vertex="1" parent="WIyWlLk6GJQsqaUBKTNV-1">
          <mxGeometry x="1060" y="240" width="140" height="60" as="geometry" />
        </mxCell>
        <mxCell id="XWecdgJLz6n113rmZtf5-18" value="" style="endArrow=classic;html=1;rounded=0;exitX=1;exitY=0.5;exitDx=0;exitDy=0;" edge="1" parent="WIyWlLk6GJQsqaUBKTNV-1" source="XWecdgJLz6n113rmZtf5-11" target="XWecdgJLz6n113rmZtf5-12">
          <mxGeometry width="50" height="50" relative="1" as="geometry">
            <mxPoint x="820" y="240" as="sourcePoint" />
            <mxPoint x="870" y="190" as="targetPoint" />
          </mxGeometry>
        </mxCell>
        <mxCell id="XWecdgJLz6n113rmZtf5-19" value="" style="endArrow=classic;html=1;rounded=0;exitX=1;exitY=0.5;exitDx=0;exitDy=0;entryX=0;entryY=0.5;entryDx=0;entryDy=0;" edge="1" parent="WIyWlLk6GJQsqaUBKTNV-1" source="XWecdgJLz6n113rmZtf5-12" target="XWecdgJLz6n113rmZtf5-16">
          <mxGeometry width="50" height="50" relative="1" as="geometry">
            <mxPoint x="820" y="240" as="sourcePoint" />
            <mxPoint x="870" y="190" as="targetPoint" />
          </mxGeometry>
        </mxCell>
        <mxCell id="XWecdgJLz6n113rmZtf5-23" value="Server tiếp nhận dữ liệu" style="rounded=0;whiteSpace=wrap;html=1;" vertex="1" parent="WIyWlLk6GJQsqaUBKTNV-1">
          <mxGeometry x="560" y="240" width="150" height="60" as="geometry" />
        </mxCell>
        <mxCell id="XWecdgJLz6n113rmZtf5-24" value="Admin&amp;nbsp;" style="text;html=1;strokeColor=none;fillColor=none;align=center;verticalAlign=middle;whiteSpace=wrap;rounded=0;" vertex="1" parent="WIyWlLk6GJQsqaUBKTNV-1">
          <mxGeometry x="950" y="220" width="130" height="80" as="geometry" />
        </mxCell>
        <mxCell id="XWecdgJLz6n113rmZtf5-25" value="Tiếp nhân phản hồi" style="whiteSpace=wrap;html=1;" vertex="1" parent="WIyWlLk6GJQsqaUBKTNV-1">
          <mxGeometry x="1440" y="240" width="290" height="60" as="geometry" />
        </mxCell>
        <mxCell id="XWecdgJLz6n113rmZtf5-30" value="!Admin&amp;nbsp;" style="text;html=1;strokeColor=none;fillColor=none;align=center;verticalAlign=middle;whiteSpace=wrap;rounded=0;" vertex="1" parent="WIyWlLk6GJQsqaUBKTNV-1">
          <mxGeometry x="840" y="310" width="130" height="80" as="geometry" />
        </mxCell>
        <mxCell id="XWecdgJLz6n113rmZtf5-33" value="{ success: true }" style="rounded=0;whiteSpace=wrap;html=1;" vertex="1" parent="WIyWlLk6GJQsqaUBKTNV-1">
          <mxGeometry x="1260" y="240" width="120" height="60" as="geometry" />
        </mxCell>
        <mxCell id="XWecdgJLz6n113rmZtf5-39" style="edgeStyle=orthogonalEdgeStyle;rounded=0;orthogonalLoop=1;jettySize=auto;html=1;entryX=0.5;entryY=1;entryDx=0;entryDy=0;" edge="1" parent="WIyWlLk6GJQsqaUBKTNV-1" source="XWecdgJLz6n113rmZtf5-34" target="XWecdgJLz6n113rmZtf5-25">
          <mxGeometry relative="1" as="geometry">
            <Array as="points">
              <mxPoint x="1585" y="390" />
            </Array>
          </mxGeometry>
        </mxCell>
        <mxCell id="XWecdgJLz6n113rmZtf5-34" value="{ success: false }" style="rounded=0;whiteSpace=wrap;html=1;" vertex="1" parent="WIyWlLk6GJQsqaUBKTNV-1">
          <mxGeometry x="1260" y="360" width="120" height="60" as="geometry" />
        </mxCell>
      </root>
    </mxGraphModel>
  </diagram>
</mxfile>
